<svg width="24" height="24" viewBox="0 0 16 16" fill="none" xmlns="http://www.w3.org/2000/svg">
<path fill-rule="evenodd" clip-rule="evenodd" d="M1.25 2C1.25 1.80109 1.32902 1.61032 1.46967 1.46967C1.61032 1.32902 1.80109 1.25 2 1.25H14C14.1482 1.25013 14.2931 1.29419 14.4163 1.37661C14.5395 1.45903 14.6356 1.57611 14.6923 1.71308C14.749 1.85004 14.7638 2.00074 14.735 2.14614C14.7061 2.29154 14.6348 2.42511 14.53 2.53L9.06 8L14.53 13.47C14.6348 13.5749 14.7061 13.7085 14.735 13.8539C14.7638 13.9993 14.749 14.15 14.6923 14.2869C14.6356 14.4239 14.5395 14.541 14.4163 14.6234C14.2931 14.7058 14.1482 14.7499 14 14.75H2C1.80109 14.75 1.61032 14.671 1.46967 14.5303C1.32902 14.3897 1.25 14.1989 1.25 14V2ZM2.75 2.75V13.25H12.19L7.47 8.53C7.32955 8.38937 7.25066 8.19875 7.25066 8C7.25066 7.80125 7.32955 7.61063 7.47 7.47L12.19 2.75H2.75Z" fill="white"/>
</svg>
