<svg width="20" height="24" viewBox="0 0 20 24" fill="none" xmlns="http://www.w3.org/2000/svg">
<g clip-path="url(#clip0_42_141)">
<path fill-rule="evenodd" clip-rule="evenodd" d="M10.8109 20.4088C11.2529 19.9289 11.787 19.3715 12.3902 18.7852C14.138 17.0858 16.5306 15.0784 18.9767 14.0592L19.5684 15.4794C17.399 16.3833 15.1763 18.2221 13.4626 19.8881C12.6141 20.713 11.9064 21.4796 11.4113 22.0396C11.1639 22.3195 10.9701 22.547 10.8389 22.7038C10.7733 22.7821 10.7234 22.8427 10.6902 22.8833L10.6533 22.9287L10.6446 22.9395L10.6427 22.9419L10.0418 23.693L9.4412 22.9422L9.43897 22.9395L9.43021 22.9287L9.39327 22.8833C9.36015 22.8427 9.31023 22.7821 9.24461 22.7038C9.1134 22.547 8.9196 22.3195 8.67223 22.0396C8.17709 21.4796 7.46941 20.713 6.62094 19.8881C4.9072 18.2221 2.68446 16.3833 0.515137 15.4794L1.10685 14.0592C3.5529 15.0784 5.94557 17.0858 7.69337 18.7852C8.29644 19.3715 8.83052 19.9288 9.27246 20.4087V0.923157H10.8109V20.4088Z" fill="#2B2B2B" stroke="#2B2B2B" stroke-width="3.07692"/>
</g>
<defs>
<clipPath id="clip0_42_141">
<rect width="20" height="23.0769" fill="white" transform="translate(0 0.923096)"/>
</clipPath>
</defs>
</svg>
